<mxfile host="app.diagrams.net" modified="2022-04-01T07:07:37.172Z" agent="5.0 (Windows NT 10.0; Win64; x64) AppleWebKit/537.36 (KHTML, like Gecko) Chrome/99.0.4844.74 Safari/537.36 Edg/99.0.1150.55" etag="97lC5OGHRtsGjCzUphYk" version="17.4.0" type="github">
  <diagram id="C5RBs43oDa-KdzZeNtuy" name="Page-1">
    <mxGraphModel dx="1240" dy="764" grid="1" gridSize="10" guides="1" tooltips="1" connect="1" arrows="1" fold="1" page="1" pageScale="1" pageWidth="827" pageHeight="1169" background="#FFFFFF" math="0" shadow="1">
      <root>
        <mxCell id="WIyWlLk6GJQsqaUBKTNV-0" />
        <mxCell id="WIyWlLk6GJQsqaUBKTNV-1" parent="WIyWlLk6GJQsqaUBKTNV-0" />
        <mxCell id="WIyWlLk6GJQsqaUBKTNV-2" value="" style="rounded=0;html=1;jettySize=auto;orthogonalLoop=1;fontSize=11;endArrow=block;endFill=0;endSize=8;strokeWidth=1;shadow=0;labelBackgroundColor=none;edgeStyle=orthogonalEdgeStyle;sketch=1;curved=1;" parent="WIyWlLk6GJQsqaUBKTNV-1" source="WIyWlLk6GJQsqaUBKTNV-3" target="WIyWlLk6GJQsqaUBKTNV-6" edge="1">
          <mxGeometry relative="1" as="geometry" />
        </mxCell>
        <mxCell id="WIyWlLk6GJQsqaUBKTNV-3" value="&lt;p&gt;&lt;font face=&quot;Comic Sans MS&quot; style=&quot;font-size: 15px&quot;&gt;Main 函数&lt;/font&gt;&lt;/p&gt;" style="rounded=0;whiteSpace=wrap;html=1;fontSize=12;glass=0;strokeWidth=1;shadow=0;sketch=1;" parent="WIyWlLk6GJQsqaUBKTNV-1" vertex="1">
          <mxGeometry x="320" y="100" width="120" height="40" as="geometry" />
        </mxCell>
        <mxCell id="297M0GaryiskETPCRw7N-32" style="edgeStyle=orthogonalEdgeStyle;curved=1;sketch=1;orthogonalLoop=1;jettySize=auto;html=1;entryX=0;entryY=0.5;entryDx=0;entryDy=0;fontFamily=Comic Sans MS;fontSize=15;" edge="1" parent="WIyWlLk6GJQsqaUBKTNV-1" source="WIyWlLk6GJQsqaUBKTNV-6" target="297M0GaryiskETPCRw7N-31">
          <mxGeometry relative="1" as="geometry" />
        </mxCell>
        <mxCell id="WIyWlLk6GJQsqaUBKTNV-6" value="&lt;span style=&quot;font-family: &amp;#34;comic sans ms&amp;#34; ; font-size: 15px&quot;&gt;用户输入&lt;/span&gt;" style="rhombus;whiteSpace=wrap;html=1;shadow=0;fontFamily=Helvetica;fontSize=12;align=center;strokeWidth=1;spacing=6;spacingTop=-4;rounded=0;sketch=1;" parent="WIyWlLk6GJQsqaUBKTNV-1" vertex="1">
          <mxGeometry x="300" y="180" width="160" height="60" as="geometry" />
        </mxCell>
        <mxCell id="297M0GaryiskETPCRw7N-0" value="程序启动" style="rounded=1;whiteSpace=wrap;html=1;sketch=1;fontFamily=Comic Sans MS;fontSize=15;arcSize=39;" vertex="1" parent="WIyWlLk6GJQsqaUBKTNV-1">
          <mxGeometry x="320" y="20" width="120" height="40" as="geometry" />
        </mxCell>
        <mxCell id="297M0GaryiskETPCRw7N-1" value="" style="rounded=0;html=1;jettySize=auto;orthogonalLoop=1;fontSize=11;endArrow=block;endFill=0;endSize=8;strokeWidth=1;shadow=0;labelBackgroundColor=none;edgeStyle=orthogonalEdgeStyle;sketch=1;curved=1;exitX=0.5;exitY=1;exitDx=0;exitDy=0;" edge="1" parent="WIyWlLk6GJQsqaUBKTNV-1" source="297M0GaryiskETPCRw7N-0">
          <mxGeometry relative="1" as="geometry">
            <mxPoint x="390" y="150" as="sourcePoint" />
            <mxPoint x="380" y="100" as="targetPoint" />
          </mxGeometry>
        </mxCell>
        <mxCell id="297M0GaryiskETPCRw7N-20" style="edgeStyle=orthogonalEdgeStyle;curved=1;sketch=1;orthogonalLoop=1;jettySize=auto;html=1;entryX=0.5;entryY=0;entryDx=0;entryDy=0;fontFamily=Comic Sans MS;fontSize=15;" edge="1" parent="WIyWlLk6GJQsqaUBKTNV-1" source="297M0GaryiskETPCRw7N-4" target="297M0GaryiskETPCRw7N-15">
          <mxGeometry relative="1" as="geometry" />
        </mxCell>
        <mxCell id="297M0GaryiskETPCRw7N-4" value="&lt;p&gt;&lt;font face=&quot;Comic Sans MS&quot; style=&quot;font-size: 15px&quot;&gt;Delete&lt;/font&gt;&lt;/p&gt;" style="rounded=0;whiteSpace=wrap;html=1;fontSize=12;glass=0;strokeWidth=1;shadow=0;sketch=1;" vertex="1" parent="WIyWlLk6GJQsqaUBKTNV-1">
          <mxGeometry x="120" y="280" width="120" height="40" as="geometry" />
        </mxCell>
        <mxCell id="297M0GaryiskETPCRw7N-22" value="" style="edgeStyle=orthogonalEdgeStyle;curved=1;sketch=1;orthogonalLoop=1;jettySize=auto;html=1;fontFamily=Comic Sans MS;fontSize=15;" edge="1" parent="WIyWlLk6GJQsqaUBKTNV-1" source="297M0GaryiskETPCRw7N-5" target="297M0GaryiskETPCRw7N-7">
          <mxGeometry relative="1" as="geometry" />
        </mxCell>
        <mxCell id="297M0GaryiskETPCRw7N-5" value="&lt;p&gt;&lt;font face=&quot;Comic Sans MS&quot; style=&quot;font-size: 15px&quot;&gt;Add&lt;/font&gt;&lt;/p&gt;" style="rounded=0;whiteSpace=wrap;html=1;fontSize=12;glass=0;strokeWidth=1;shadow=0;sketch=1;" vertex="1" parent="WIyWlLk6GJQsqaUBKTNV-1">
          <mxGeometry x="320" y="280" width="120" height="40" as="geometry" />
        </mxCell>
        <mxCell id="297M0GaryiskETPCRw7N-26" value="" style="edgeStyle=orthogonalEdgeStyle;curved=1;sketch=1;orthogonalLoop=1;jettySize=auto;html=1;fontFamily=Comic Sans MS;fontSize=15;" edge="1" parent="WIyWlLk6GJQsqaUBKTNV-1" source="297M0GaryiskETPCRw7N-6" target="297M0GaryiskETPCRw7N-16">
          <mxGeometry relative="1" as="geometry" />
        </mxCell>
        <mxCell id="297M0GaryiskETPCRw7N-6" value="&lt;p&gt;&lt;font face=&quot;Comic Sans MS&quot; style=&quot;font-size: 15px&quot;&gt;Show&lt;/font&gt;&lt;/p&gt;" style="rounded=0;whiteSpace=wrap;html=1;fontSize=12;glass=0;strokeWidth=1;shadow=0;sketch=1;" vertex="1" parent="WIyWlLk6GJQsqaUBKTNV-1">
          <mxGeometry x="520" y="280" width="120" height="40" as="geometry" />
        </mxCell>
        <mxCell id="297M0GaryiskETPCRw7N-23" value="" style="edgeStyle=orthogonalEdgeStyle;curved=1;sketch=1;orthogonalLoop=1;jettySize=auto;html=1;fontFamily=Comic Sans MS;fontSize=15;" edge="1" parent="WIyWlLk6GJQsqaUBKTNV-1" source="297M0GaryiskETPCRw7N-7" target="297M0GaryiskETPCRw7N-12">
          <mxGeometry relative="1" as="geometry" />
        </mxCell>
        <mxCell id="297M0GaryiskETPCRw7N-7" value="&lt;p&gt;&lt;font face=&quot;Comic Sans MS&quot; style=&quot;font-size: 15px&quot;&gt;输入长度 size&lt;/font&gt;&lt;/p&gt;" style="rounded=0;whiteSpace=wrap;html=1;fontSize=12;glass=0;strokeWidth=1;shadow=0;sketch=1;" vertex="1" parent="WIyWlLk6GJQsqaUBKTNV-1">
          <mxGeometry x="320" y="360" width="120" height="40" as="geometry" />
        </mxCell>
        <mxCell id="297M0GaryiskETPCRw7N-8" value="" style="rounded=0;html=1;jettySize=auto;orthogonalLoop=1;fontSize=11;endArrow=block;endFill=0;endSize=8;strokeWidth=1;shadow=0;labelBackgroundColor=none;edgeStyle=orthogonalEdgeStyle;sketch=1;curved=1;exitX=0.5;exitY=1;exitDx=0;exitDy=0;entryX=0.5;entryY=0;entryDx=0;entryDy=0;" edge="1" parent="WIyWlLk6GJQsqaUBKTNV-1" source="WIyWlLk6GJQsqaUBKTNV-6" target="297M0GaryiskETPCRw7N-5">
          <mxGeometry relative="1" as="geometry">
            <mxPoint x="390" y="150" as="sourcePoint" />
            <mxPoint x="390" y="190" as="targetPoint" />
          </mxGeometry>
        </mxCell>
        <mxCell id="297M0GaryiskETPCRw7N-9" value="" style="rounded=0;html=1;jettySize=auto;orthogonalLoop=1;fontSize=11;endArrow=block;endFill=0;endSize=8;strokeWidth=1;shadow=0;labelBackgroundColor=none;edgeStyle=orthogonalEdgeStyle;sketch=1;curved=1;exitX=1;exitY=1;exitDx=0;exitDy=0;entryX=0.5;entryY=0;entryDx=0;entryDy=0;" edge="1" parent="WIyWlLk6GJQsqaUBKTNV-1" source="WIyWlLk6GJQsqaUBKTNV-6" target="297M0GaryiskETPCRw7N-6">
          <mxGeometry relative="1" as="geometry">
            <mxPoint x="390" y="250" as="sourcePoint" />
            <mxPoint x="390" y="290" as="targetPoint" />
          </mxGeometry>
        </mxCell>
        <mxCell id="297M0GaryiskETPCRw7N-10" value="" style="rounded=0;html=1;jettySize=auto;orthogonalLoop=1;fontSize=11;endArrow=block;endFill=0;endSize=8;strokeWidth=1;shadow=0;labelBackgroundColor=none;edgeStyle=orthogonalEdgeStyle;sketch=1;curved=1;exitX=0;exitY=1;exitDx=0;exitDy=0;entryX=0.5;entryY=0;entryDx=0;entryDy=0;" edge="1" parent="WIyWlLk6GJQsqaUBKTNV-1" source="WIyWlLk6GJQsqaUBKTNV-6" target="297M0GaryiskETPCRw7N-4">
          <mxGeometry relative="1" as="geometry">
            <mxPoint x="430" y="235" as="sourcePoint" />
            <mxPoint x="590" y="290" as="targetPoint" />
          </mxGeometry>
        </mxCell>
        <mxCell id="297M0GaryiskETPCRw7N-24" value="" style="edgeStyle=orthogonalEdgeStyle;curved=1;sketch=1;orthogonalLoop=1;jettySize=auto;html=1;fontFamily=Comic Sans MS;fontSize=15;" edge="1" parent="WIyWlLk6GJQsqaUBKTNV-1" source="297M0GaryiskETPCRw7N-12" target="297M0GaryiskETPCRw7N-13">
          <mxGeometry relative="1" as="geometry" />
        </mxCell>
        <mxCell id="297M0GaryiskETPCRw7N-12" value="&lt;p&gt;&lt;font face=&quot;Comic Sans MS&quot;&gt;&lt;span style=&quot;font-size: 15px&quot;&gt;malloc(size)&lt;/span&gt;&lt;/font&gt;&lt;/p&gt;" style="rounded=0;whiteSpace=wrap;html=1;fontSize=12;glass=0;strokeWidth=1;shadow=0;sketch=1;" vertex="1" parent="WIyWlLk6GJQsqaUBKTNV-1">
          <mxGeometry x="320" y="440" width="120" height="40" as="geometry" />
        </mxCell>
        <mxCell id="297M0GaryiskETPCRw7N-25" value="" style="edgeStyle=orthogonalEdgeStyle;curved=1;sketch=1;orthogonalLoop=1;jettySize=auto;html=1;fontFamily=Comic Sans MS;fontSize=15;" edge="1" parent="WIyWlLk6GJQsqaUBKTNV-1" source="297M0GaryiskETPCRw7N-13" target="297M0GaryiskETPCRw7N-14">
          <mxGeometry relative="1" as="geometry" />
        </mxCell>
        <mxCell id="297M0GaryiskETPCRw7N-13" value="&lt;p style=&quot;line-height: 0.9&quot;&gt;&lt;font face=&quot;Comic Sans MS&quot;&gt;&lt;span style=&quot;font-size: 15px&quot;&gt;更新全局变量&lt;/span&gt;&lt;/font&gt;&lt;/p&gt;&lt;p&gt;&lt;font face=&quot;Comic Sans MS&quot;&gt;&lt;span style=&quot;font-size: 15px&quot;&gt;area 和 iter&lt;/span&gt;&lt;/font&gt;&lt;/p&gt;" style="rounded=0;whiteSpace=wrap;html=1;fontSize=12;glass=0;strokeWidth=1;shadow=0;sketch=1;" vertex="1" parent="WIyWlLk6GJQsqaUBKTNV-1">
          <mxGeometry x="320" y="520" width="120" height="50" as="geometry" />
        </mxCell>
        <mxCell id="297M0GaryiskETPCRw7N-30" style="edgeStyle=orthogonalEdgeStyle;curved=1;sketch=1;orthogonalLoop=1;jettySize=auto;html=1;entryX=0;entryY=0.75;entryDx=0;entryDy=0;fontFamily=Comic Sans MS;fontSize=15;" edge="1" parent="WIyWlLk6GJQsqaUBKTNV-1" source="297M0GaryiskETPCRw7N-14" target="WIyWlLk6GJQsqaUBKTNV-3">
          <mxGeometry relative="1" as="geometry">
            <Array as="points">
              <mxPoint x="270" y="630" />
              <mxPoint x="270" y="130" />
            </Array>
          </mxGeometry>
        </mxCell>
        <mxCell id="297M0GaryiskETPCRw7N-14" value="&lt;p&gt;&lt;font face=&quot;Comic Sans MS&quot;&gt;&lt;span style=&quot;font-size: 15px&quot;&gt;输入 content&lt;/span&gt;&lt;/font&gt;&lt;/p&gt;" style="rounded=0;whiteSpace=wrap;html=1;fontSize=12;glass=0;strokeWidth=1;shadow=0;sketch=1;" vertex="1" parent="WIyWlLk6GJQsqaUBKTNV-1">
          <mxGeometry x="320" y="610" width="120" height="40" as="geometry" />
        </mxCell>
        <mxCell id="297M0GaryiskETPCRw7N-21" value="" style="edgeStyle=orthogonalEdgeStyle;curved=1;sketch=1;orthogonalLoop=1;jettySize=auto;html=1;fontFamily=Comic Sans MS;fontSize=15;" edge="1" parent="WIyWlLk6GJQsqaUBKTNV-1" source="297M0GaryiskETPCRw7N-15" target="297M0GaryiskETPCRw7N-17">
          <mxGeometry relative="1" as="geometry" />
        </mxCell>
        <mxCell id="297M0GaryiskETPCRw7N-15" value="&lt;p&gt;&lt;font face=&quot;Comic Sans MS&quot; style=&quot;font-size: 15px&quot;&gt;输入下标 index&lt;/font&gt;&lt;/p&gt;" style="rounded=0;whiteSpace=wrap;html=1;fontSize=12;glass=0;strokeWidth=1;shadow=0;sketch=1;" vertex="1" parent="WIyWlLk6GJQsqaUBKTNV-1">
          <mxGeometry x="120" y="360" width="120" height="40" as="geometry" />
        </mxCell>
        <mxCell id="297M0GaryiskETPCRw7N-27" value="" style="edgeStyle=orthogonalEdgeStyle;curved=1;sketch=1;orthogonalLoop=1;jettySize=auto;html=1;fontFamily=Comic Sans MS;fontSize=15;" edge="1" parent="WIyWlLk6GJQsqaUBKTNV-1" source="297M0GaryiskETPCRw7N-16" target="297M0GaryiskETPCRw7N-19">
          <mxGeometry relative="1" as="geometry" />
        </mxCell>
        <mxCell id="297M0GaryiskETPCRw7N-16" value="&lt;p&gt;&lt;font face=&quot;Comic Sans MS&quot; style=&quot;font-size: 15px&quot;&gt;输入下标 index&lt;/font&gt;&lt;/p&gt;" style="rounded=0;whiteSpace=wrap;html=1;fontSize=12;glass=0;strokeWidth=1;shadow=0;sketch=1;" vertex="1" parent="WIyWlLk6GJQsqaUBKTNV-1">
          <mxGeometry x="520" y="360" width="120" height="40" as="geometry" />
        </mxCell>
        <mxCell id="297M0GaryiskETPCRw7N-28" style="edgeStyle=orthogonalEdgeStyle;curved=1;sketch=1;orthogonalLoop=1;jettySize=auto;html=1;entryX=0;entryY=0.5;entryDx=0;entryDy=0;fontFamily=Comic Sans MS;fontSize=15;" edge="1" parent="WIyWlLk6GJQsqaUBKTNV-1" source="297M0GaryiskETPCRw7N-17" target="WIyWlLk6GJQsqaUBKTNV-3">
          <mxGeometry relative="1" as="geometry">
            <Array as="points">
              <mxPoint x="60" y="460" />
              <mxPoint x="60" y="120" />
            </Array>
          </mxGeometry>
        </mxCell>
        <mxCell id="297M0GaryiskETPCRw7N-17" value="&lt;p&gt;&lt;font face=&quot;Comic Sans MS&quot; style=&quot;font-size: 15px&quot;&gt;free(area[index])&lt;/font&gt;&lt;/p&gt;" style="rounded=0;whiteSpace=wrap;html=1;fontSize=12;glass=0;strokeWidth=1;shadow=0;sketch=1;" vertex="1" parent="WIyWlLk6GJQsqaUBKTNV-1">
          <mxGeometry x="105" y="440" width="150" height="40" as="geometry" />
        </mxCell>
        <mxCell id="297M0GaryiskETPCRw7N-29" style="edgeStyle=orthogonalEdgeStyle;curved=1;sketch=1;orthogonalLoop=1;jettySize=auto;html=1;entryX=1;entryY=0.5;entryDx=0;entryDy=0;fontFamily=Comic Sans MS;fontSize=15;" edge="1" parent="WIyWlLk6GJQsqaUBKTNV-1" source="297M0GaryiskETPCRw7N-19" target="WIyWlLk6GJQsqaUBKTNV-3">
          <mxGeometry relative="1" as="geometry">
            <Array as="points">
              <mxPoint x="710" y="460" />
              <mxPoint x="710" y="120" />
            </Array>
          </mxGeometry>
        </mxCell>
        <mxCell id="297M0GaryiskETPCRw7N-19" value="&lt;p&gt;&lt;font face=&quot;Comic Sans MS&quot; style=&quot;font-size: 15px&quot;&gt;write(1, area[index])&lt;/font&gt;&lt;/p&gt;" style="rounded=0;whiteSpace=wrap;html=1;fontSize=12;glass=0;strokeWidth=1;shadow=0;sketch=1;" vertex="1" parent="WIyWlLk6GJQsqaUBKTNV-1">
          <mxGeometry x="497.5" y="440" width="165" height="40" as="geometry" />
        </mxCell>
        <mxCell id="297M0GaryiskETPCRw7N-31" value="程序结束" style="rounded=1;whiteSpace=wrap;html=1;sketch=1;fontFamily=Comic Sans MS;fontSize=15;arcSize=39;" vertex="1" parent="WIyWlLk6GJQsqaUBKTNV-1">
          <mxGeometry x="542.5" y="190" width="120" height="40" as="geometry" />
        </mxCell>
        <mxCell id="297M0GaryiskETPCRw7N-33" value="1" style="text;html=1;align=center;verticalAlign=middle;resizable=0;points=[];autosize=1;strokeColor=none;fillColor=none;fontSize=15;fontFamily=Comic Sans MS;" vertex="1" parent="WIyWlLk6GJQsqaUBKTNV-1">
          <mxGeometry x="360" y="250" width="20" height="20" as="geometry" />
        </mxCell>
        <mxCell id="297M0GaryiskETPCRw7N-34" value="2" style="text;html=1;align=center;verticalAlign=middle;resizable=0;points=[];autosize=1;strokeColor=none;fillColor=none;fontSize=15;fontFamily=Comic Sans MS;" vertex="1" parent="WIyWlLk6GJQsqaUBKTNV-1">
          <mxGeometry x="160" y="250" width="20" height="20" as="geometry" />
        </mxCell>
        <mxCell id="297M0GaryiskETPCRw7N-35" value="3" style="text;html=1;align=center;verticalAlign=middle;resizable=0;points=[];autosize=1;strokeColor=none;fillColor=none;fontSize=15;fontFamily=Comic Sans MS;" vertex="1" parent="WIyWlLk6GJQsqaUBKTNV-1">
          <mxGeometry x="550" y="250" width="20" height="20" as="geometry" />
        </mxCell>
        <mxCell id="297M0GaryiskETPCRw7N-36" value="其他" style="text;html=1;align=center;verticalAlign=middle;resizable=0;points=[];autosize=1;strokeColor=none;fillColor=none;fontSize=15;fontFamily=Comic Sans MS;" vertex="1" parent="WIyWlLk6GJQsqaUBKTNV-1">
          <mxGeometry x="460" y="190" width="50" height="20" as="geometry" />
        </mxCell>
      </root>
    </mxGraphModel>
  </diagram>
</mxfile>
